# xmcd CD database file
#
# Track frame offsets:
#	150
#	18563
#	33518
#	49159
#	75964
#	93691
#	121187
#	132743
#	147198
#	166103
#
# Disc length: 2467 seconds
#
# Revision: 0
# Processed by: cddbd v1.5.1PL0 Copyright (c) Steve Scherf et al.
# Submitted via: CDex 1.50
#
DISCID=8009a10a
DTITLE=sophia - Journey into love
DYEAR=1900
DGENRE=New Age
TTITLE0=Nobody's fools
TTITLE1=Heal me with your love
TTITLE2=Fill Me
TTITLE3=In the temple of hy heart
TTITLE4=I open my heart to you
TTITLE5=The wedding blessing
TTITLE6=Prayer of St Francis
TTITLE7=I am sustained
TTITLE8=Contemplation Chant
TTITLE9=Blessings Upon You
EXTD=
EXTT0=
EXTT1=
EXTT2=
EXTT3=
EXTT4=
EXTT5=
EXTT6=
EXTT7=
EXTT8=
EXTT9=
PLAYORDER=
